<?xml version="1.0" standalone="no"?>
<!DOCTYPE svg PUBLIC "-//W3C//DTD SVG 20010904//EN"
 "http://www.w3.org/TR/2001/REC-SVG-20010904/DTD/svg10.dtd">
<svg version="1.0" xmlns="http://www.w3.org/2000/svg"
 width="150.000000pt" height="150.000000pt" viewBox="0 0 150.000000 150.000000"
 preserveAspectRatio="xMidYMid meet">
<metadata>
Created by potrace 1.11, written by Peter Selinger 2001-2013
</metadata>
<g transform="translate(0.000000,150.000000) scale(0.100000,-0.100000)"
fill="#000000" stroke="none">
<path d="M0 911 c0 -483 2 -590 13 -594 17 -6 32 3 40 23 4 10 6 8 6 -6 1 -12
9 -24 18 -28 10 -3 23 -9 30 -12 6 -3 14 4 18 16 5 17 10 19 20 10 8 -7 19 -9
25 -5 5 3 10 3 10 -2 0 -15 52 -32 82 -26 25 5 29 10 25 30 -3 17 -1 23 9 19
7 -3 20 2 29 10 8 9 15 11 15 6 0 -16 80 -19 92 -4 7 7 20 11 30 9 21 -6 48
27 48 59 0 26 -22 46 -43 38 -11 -4 -15 1 -13 20 1 18 7 26 19 26 21 0 23 38
3 65 -12 16 -18 17 -39 8 -23 -11 -26 -10 -29 9 -2 16 -11 22 -31 23 -16 0
-31 -4 -35 -10 -4 -7 -16 -15 -27 -19 -17 -6 -16 -4 5 19 21 22 22 28 10 35
-13 8 -12 10 3 10 9 0 17 -4 17 -9 0 -11 81 -2 98 12 18 14 15 51 -6 77 -15
19 -22 21 -39 12 -17 -10 -20 -9 -19 6 0 9 5 20 10 23 12 10 -2 46 -22 54 -9
3 -18 1 -20 -4 -5 -16 -22 -13 -22 2 0 22 -58 19 -65 -3 -3 -10 -12 -24 -21
-31 -13 -10 -13 -8 -4 15 5 15 10 33 10 41 0 16 -53 31 -58 16 -2 -7 -12 -7
-28 0 -34 12 -35 12 -68 -16 -16 -14 -33 -25 -38 -25 -13 0 12 24 40 39 12 6
22 19 22 29 0 14 2 15 10 2 7 -12 16 -12 49 -4 23 6 41 8 41 5 0 -11 63 -42
69 -34 3 5 19 9 36 8 23 0 31 6 39 26 12 34 2 59 -23 59 -15 0 -19 4 -14 18 4
9 13 22 21 28 13 9 12 14 -7 33 -18 18 -25 20 -37 10 -11 -9 -14 -9 -14 1 0 9
-10 11 -31 6 -26 -5 -29 -3 -20 7 6 8 9 16 6 18 -2 3 11 3 30 1 27 -3 35 -1
35 12 0 9 -7 19 -15 22 -9 4 -14 11 -13 18 4 20 -23 58 -38 52 -11 -4 -11 -2
-2 13 14 23 3 55 -17 47 -8 -3 -15 -1 -15 5 0 6 -8 20 -17 33 -15 20 -20 21
-50 11 -18 -6 -36 -14 -39 -18 -4 -4 -12 -7 -17 -7 -6 0 -2 8 9 19 10 10 22
17 26 15 3 -2 17 0 31 5 29 11 45 60 25 76 -9 7 -11 21 -7 45 4 22 7 27 8 12
0 -12 7 -25 14 -28 13 -5 14 -43 3 -88 -4 -16 1 -29 14 -41 11 -10 20 -14 20
-10 0 5 7 0 15 -11 8 -10 15 -28 15 -40 0 -32 34 -58 65 -50 16 4 24 3 21 -3
-7 -11 22 -24 35 -15 5 3 9 12 9 21 0 9 6 13 14 10 16 -7 29 31 20 60 -5 16
-5 17 6 1 6 -9 17 -15 25 -12 10 4 9 -4 -6 -32 -24 -48 -24 -61 0 -74 30 -16
52 -12 58 10 7 26 17 25 34 -1 12 -17 18 -19 42 -10 22 9 27 15 22 31 -5 16
-2 20 16 20 12 0 19 3 16 6 -3 4 -2 14 3 24 7 13 4 22 -10 35 -30 27 -24 40 7
16 25 -20 27 -20 45 -4 11 9 17 25 15 35 -3 10 -2 18 1 18 12 0 31 51 26 68
-5 16 -5 16 8 0 13 -15 18 -15 41 -3 15 8 27 10 27 6 0 -5 -15 -14 -32 -22
-40 -16 -50 -29 -36 -46 7 -9 7 -13 -1 -13 -6 0 -11 -7 -11 -17 0 -9 -14 -29
-32 -45 -17 -15 -28 -31 -25 -35 4 -3 0 -17 -9 -30 -14 -22 -14 -27 1 -49 18
-28 69 -34 79 -8 8 21 35 -4 29 -27 -3 -11 4 -22 17 -29 29 -15 74 12 65 40
-5 14 -2 17 14 13 22 -6 36 24 26 60 -6 21 -5 21 9 3 8 -10 19 -15 25 -11 6 3
11 2 11 -4 0 -5 -5 -11 -12 -13 -6 -2 -13 -11 -14 -19 -2 -7 -6 -24 -9 -36 -5
-16 -1 -24 15 -33 28 -15 74 -5 66 15 -3 9 0 15 8 15 8 0 16 -7 20 -15 8 -21
33 -19 46 5 6 11 8 20 5 20 -3 0 3 10 15 22 18 19 18 23 5 38 -8 9 -15 22 -15
29 0 7 8 3 18 -9 16 -19 22 -21 40 -11 12 6 22 17 22 24 0 7 12 21 26 32 20
15 25 25 21 50 -5 30 -5 30 5 4 12 -28 55 -38 64 -14 3 8 19 11 41 8 39 -4 53
7 53 44 0 20 3 21 25 13 22 -8 27 -6 37 15 6 14 17 25 24 25 7 0 25 5 39 12
23 10 25 16 25 75 l0 63 -670 0 c-668 0 -671 0 -660 -20 6 -11 18 -20 28 -21
11 0 13 -2 4 -6 -7 -3 -22 3 -32 12 -10 9 -24 14 -29 10 -6 -3 -11 0 -11 9 0
11 -15 14 -65 15 l-65 0 0 -588z m714 494 c3 -8 1 -15 -4 -15 -6 0 -10 7 -10
15 0 8 2 15 4 15 2 0 6 -7 10 -15z m459 -94 c3 -12 0 -18 -7 -15 -6 2 -12 13
-12 24 0 23 12 17 19 -9z m-1058 -401 c3 -5 1 -10 -4 -10 -6 0 -11 5 -11 10 0
6 2 10 4 10 3 0 8 -4 11 -10z"/>
<path d="M1460 1347 c-14 -6 -26 -12 -28 -13 -4 -2 -10 -32 -11 -54 -1 -11 -3
-12 -9 -3 -11 17 -40 10 -57 -14 -8 -11 -12 -22 -10 -25 3 -2 -9 -3 -25 0 -18
2 -30 0 -30 -7 0 -6 -7 -8 -15 -5 -8 4 -15 2 -15 -3 0 -5 -14 -8 -30 -5 -33 5
-64 -14 -56 -34 3 -7 -2 -15 -10 -18 -9 -3 -12 -11 -9 -16 4 -6 3 -10 -2 -9
-18 4 -45 -15 -59 -43 -17 -33 -12 -48 17 -48 20 0 26 -16 8 -22 -8 -3 -5 -10
6 -22 14 -14 20 -15 26 -4 7 10 9 10 9 1 0 -16 32 -17 47 -2 9 9 11 7 7 -7 -3
-12 -15 -21 -31 -22 -13 -1 -29 -4 -34 -8 -14 -8 -11 -34 6 -40 17 -7 21 -34
4 -34 -6 0 -9 -10 -7 -22 2 -19 9 -23 36 -22 17 1 32 -2 32 -7 0 -14 33 2 53
25 17 21 17 21 8 -6 -12 -33 -4 -40 57 -45 36 -3 48 1 63 18 11 12 21 20 24
17 3 -2 -5 -14 -18 -26 -26 -25 -92 -34 -122 -16 -32 18 -77 11 -86 -15 -6
-16 -4 -23 6 -27 21 -8 19 -21 -5 -27 -26 -7 -26 -37 0 -44 11 -3 17 -10 14
-15 -10 -15 17 -28 46 -22 l25 5 -23 -13 c-12 -8 -19 -18 -15 -23 4 -5 -6 1
-24 13 -17 12 -35 22 -41 22 -16 0 -35 -29 -28 -45 7 -20 4 -31 -10 -27 -6 1
-19 -7 -28 -17 -14 -16 -15 -23 -6 -41 8 -15 18 -20 31 -17 20 5 26 -7 9 -18
-14 -8 -13 -25 1 -25 7 0 17 -8 24 -17 11 -15 15 -15 36 -2 32 21 59 30 59 21
0 -4 -13 -16 -30 -25 -29 -17 -41 -47 -20 -47 6 0 10 -6 10 -12 0 -28 17 -40
38 -29 16 9 21 7 25 -10 3 -12 10 -18 16 -14 6 3 11 0 11 -7 0 -7 9 -19 20
-25 28 -18 109 22 110 55 0 13 4 21 9 18 5 -4 16 -3 25 0 14 6 16 57 16 495 0
269 -3 489 -7 488 -5 0 -19 -5 -33 -12z m-44 -585 c-4 -3 -14 2 -24 12 -16 18
-16 18 6 6 13 -6 21 -14 18 -18z"/>
<path d="M607 1004 c-14 -14 -77 -32 -83 -23 -3 5 -16 9 -28 9 -17 0 -23 -5
-22 -20 0 -12 7 -25 15 -29 7 -5 10 -14 6 -21 -16 -25 -12 -75 7 -88 10 -7 16
-17 13 -22 -7 -11 77 -24 103 -16 19 6 18 4 -4 -40 -13 -26 -21 -51 -18 -56 4
-6 1 -14 -7 -18 -10 -7 -10 -14 -1 -36 11 -24 10 -28 -9 -42 -19 -13 -20 -16
-5 -24 9 -5 21 -6 26 -3 9 5 15 -15 11 -37 0 -5 3 -8 9 -8 5 0 10 -5 10 -12 0
-6 7 -20 17 -30 15 -16 15 -18 0 -18 -23 0 -36 -29 -30 -67 5 -30 8 -32 32
-27 34 9 49 21 53 45 3 20 3 20 26 -1 12 -11 22 -18 22 -14 0 3 6 2 13 -4 6
-6 27 -9 45 -8 23 2 31 -2 28 -11 -6 -14 27 -36 38 -26 3 3 6 14 6 24 0 18 40
36 66 31 7 -1 15 9 18 23 4 14 13 25 21 25 9 0 12 6 9 15 -4 8 -1 15 4 15 7 0
9 18 7 44 -3 39 -1 45 19 50 30 7 66 40 66 60 0 9 4 16 9 16 6 0 8 18 5 40 -4
32 -2 40 11 40 10 0 15 7 13 18 -2 9 -11 16 -21 16 -9 -1 -17 4 -17 11 0 7
-13 27 -29 45 -27 31 -27 34 -11 50 11 11 16 27 13 43 -5 25 -10 27 -65 18 -5
0 -8 -13 -8 -28 0 -25 -1 -26 -20 -8 -10 9 -33 18 -50 19 -16 0 -30 6 -30 13
0 23 -22 25 -41 4 -22 -24 -39 -27 -39 -8 0 7 -7 4 -15 -7 -8 -11 -18 -17 -21
-13 -3 3 -11 2 -18 -3 -6 -6 -25 -21 -41 -34 l-31 -24 4 34 c5 39 -17 79 -47
89 -11 3 -21 13 -23 21 -2 9 -6 12 -11 8z"/>
<path d="M1062 447 c-22 -24 -30 -67 -12 -67 6 0 10 -4 10 -9 0 -5 -13 -8 -30
-6 -45 6 -81 -38 -44 -52 16 -6 16 -7 0 -18 -13 -10 -14 -18 -6 -39 5 -14 14
-26 20 -26 5 0 10 -5 10 -10 0 -7 -6 -7 -20 0 -14 7 -20 7 -20 0 0 -5 -5 -10
-11 -10 -5 0 -7 4 -4 10 3 5 3 25 -1 45 -5 28 -11 35 -29 35 -24 0 -49 -22
-38 -33 3 -4 -1 -7 -9 -7 -9 0 -18 5 -20 11 -2 7 -13 9 -26 5 -17 -6 -21 -13
-17 -27 4 -13 2 -19 -8 -19 -8 0 -17 -12 -20 -27 -4 -22 0 -33 21 -50 30 -25
17 -32 -14 -8 -26 20 -29 19 -49 -11 -12 -18 -14 -29 -6 -37 7 -7 4 -16 -10
-28 -11 -10 -20 -20 -20 -23 4 -29 0 -39 -10 -29 -12 12 -49 6 -49 -8 0 -4
190 -8 423 -8 422 -1 422 -1 397 19 -31 24 -34 24 -55 4 -9 -9 -19 -13 -23
-10 -4 4 4 15 16 25 19 14 22 23 17 47 -12 54 -13 54 -39 44 -24 -9 -25 -8
-19 20 4 25 2 30 -13 30 -13 0 -15 3 -7 8 8 5 10 22 6 49 -7 52 -44 83 -76 64
-10 -7 -22 -10 -25 -7 -3 3 -2 6 2 6 4 0 2 9 -4 20 -6 11 -17 17 -24 14 -11
-4 -13 0 -9 15 3 12 1 21 -5 21 -5 0 -15 14 -21 31 -7 20 -16 29 -25 26 -8 -3
-24 5 -37 19 -28 30 -40 30 -67 1z"/>
<path d="M1490 354 c0 -8 -5 -12 -10 -9 -6 3 -13 -1 -16 -9 -3 -9 -15 -16 -26
-16 -10 0 -17 -4 -14 -9 3 -5 -8 -14 -25 -21 -29 -12 -30 -15 -23 -54 8 -53
10 -55 35 -49 17 5 19 2 13 -21 -5 -21 -3 -26 12 -26 16 0 17 -2 4 -10 -12 -8
-13 -13 -2 -30 6 -11 12 -25 12 -32 0 -7 11 -18 25 -25 l25 -11 0 169 c0 93
-2 169 -5 169 -3 0 -5 -7 -5 -16z"/>
<path d="M323 314 c-3 -7 -2 -18 2 -24 3 -5 -3 -11 -14 -11 -20 -1 -32 -4 -48
-9 -5 -1 -11 -2 -15 -1 -5 0 -8 -5 -9 -12 -1 -6 -3 -31 -5 -54 -2 -24 1 -43 6
-43 6 0 10 -7 10 -16 0 -13 -3 -14 -14 -5 -17 14 -27 49 -17 56 5 2 5 21 2 41
-3 20 -9 35 -12 33 -4 -2 -16 5 -28 15 -19 17 -23 17 -38 4 -20 -16 -53 -13
-53 4 0 6 -3 8 -7 5 -3 -4 -12 -2 -18 3 -9 7 -21 7 -39 0 l-26 -10 0 -145 0
-145 311 0 c296 0 312 1 336 20 14 11 31 20 37 20 6 0 17 9 23 20 11 16 10 21
-5 29 -11 7 -13 10 -3 11 7 0 11 6 7 15 -3 9 0 15 9 15 8 0 15 7 15 15 0 9 6
18 14 21 8 3 15 18 15 32 1 15 2 38 3 51 2 18 -4 29 -21 37 -28 14 -61 3 -61
-21 0 -20 -19 -19 -26 0 -4 8 -17 15 -30 15 -15 0 -24 -6 -24 -15 0 -8 -6 -15
-14 -15 -8 0 -16 -5 -18 -12 -2 -6 -12 -12 -22 -14 -16 -2 -16 0 3 17 12 11
21 26 21 34 0 14 -4 17 -32 19 -7 1 -18 8 -25 16 -10 14 -29 17 -80 11 -7 0
-13 -14 -13 -32 0 -17 -4 -28 -10 -24 -5 3 -10 17 -10 29 0 20 -6 25 -36 28
-23 3 -38 0 -41 -8z"/>
</g>
</svg>
